<svg width="31" height="24" viewBox="0 0 31 24" fill="none" xmlns="http://www.w3.org/2000/svg">
<ellipse cx="8.59265" cy="12" rx="6.81481" ry="8.2963" fill="white"/>
<path d="M7.38689 22.6667C5.9883 22.6667 4.72761 22.3712 3.6048 21.7803C2.48199 21.1893 1.59557 20.2733 0.945522 19.0323C0.315174 17.7716 0 16.1564 0 14.1865C0 12.6107 0.216682 11.1825 0.650046 9.90213C1.08341 8.60204 1.63496 7.48909 2.30471 6.56326C2.97445 5.61774 3.65405 4.89875 4.34349 4.40629C5.03293 3.89413 5.61404 3.63805 6.0868 3.63805C6.52016 3.63805 6.82549 3.71685 7.00277 3.87443C7.19975 4.03202 7.29825 4.3275 7.29825 4.76086C7.29825 5.09573 7.2293 5.40106 7.09141 5.67683C6.95352 5.93291 6.74669 6.18899 6.47091 6.44507C5.82087 6.97693 5.24962 7.64667 4.75716 8.4543C4.2647 9.24224 3.88058 10.1188 3.6048 11.084C3.34872 12.0493 3.22068 13.0834 3.22068 14.1865C3.22068 15.1911 3.36842 16.0973 3.6639 16.9049C3.95937 17.6928 4.41243 18.3232 5.02308 18.796C5.63373 19.249 6.44137 19.4755 7.44598 19.4755C8.5097 19.4755 9.49461 19.121 10.4007 18.4118C11.3266 17.683 12.0653 16.6094 12.6168 15.1911C13.1881 13.7729 13.4737 12.0493 13.4737 10.0203C13.4737 8.97631 13.3456 8.04064 13.0896 7.21331C12.8532 6.36628 12.4691 5.70638 11.9372 5.23362C11.4054 4.76086 10.7061 4.52448 9.83933 4.52448C9.0908 4.52448 8.40135 4.64267 7.77101 4.87905C7.16036 5.11543 6.59895 5.4503 6.0868 5.88367C5.57464 6.31703 5.08218 6.82919 4.60942 7.42014C4.45183 7.61712 4.25485 7.78456 4.01847 7.92245C3.78209 8.06034 3.49646 8.12928 3.16159 8.12928C2.74792 8.12928 2.39335 7.97169 2.09788 7.65652C1.8024 7.34135 1.65466 6.96708 1.65466 6.53371C1.65466 6.08065 1.85165 5.56849 2.24561 4.99724C2.63958 4.40629 3.20098 3.83504 3.92982 3.28348C4.65866 2.71223 5.52539 2.24932 6.53001 1.89475C7.53463 1.52048 8.63773 1.33334 9.83933 1.33334C11.3955 1.33334 12.6759 1.68791 13.6805 2.39706C14.7048 3.1062 15.4632 4.11081 15.9557 5.41091C16.4678 6.6913 16.7239 8.22777 16.7239 10.0203C16.7239 12.1477 16.4481 14.0092 15.8966 15.6048C15.3647 17.1807 14.6457 18.4906 13.7396 19.5346C12.8532 20.5787 11.8584 21.3666 10.7553 21.8984C9.6522 22.4106 8.52939 22.6667 7.38689 22.6667Z" fill="#374151"/>
<ellipse cx="6.51851" cy="13.1852" rx="4.14815" ry="4.14815" fill="#374151"/>
<ellipse cx="20.9997" cy="12" rx="7.66667" ry="9.33333" fill="white"/>
<path d="M19.6435 24C18.0701 24 16.6518 23.6676 15.3887 23.0028C14.1255 22.338 13.1283 21.3075 12.397 19.9114C11.6878 18.4931 11.3333 16.6759 11.3333 14.4598C11.3333 12.687 11.577 11.0803 12.0646 9.63989C12.5521 8.17728 13.1726 6.92521 13.926 5.88366C14.6795 4.81995 15.4441 4.01108 16.2197 3.45706C16.9953 2.88089 17.649 2.5928 18.1809 2.5928C18.6684 2.5928 19.0119 2.68144 19.2114 2.85873C19.433 3.03601 19.5438 3.36842 19.5438 3.85596C19.5438 4.23269 19.4662 4.57618 19.3111 4.88643C19.156 5.17451 18.9233 5.4626 18.613 5.75069C17.8817 6.34903 17.2391 7.10249 16.6851 8.01108C16.131 8.89751 15.6989 9.88366 15.3887 10.9695C15.1006 12.0554 14.9565 13.2188 14.9565 14.4598C14.9565 15.59 15.1227 16.6094 15.4551 17.518C15.7875 18.4044 16.2972 19.1136 16.9842 19.6454C17.6712 20.1551 18.5798 20.41 19.71 20.41C20.9067 20.41 22.0147 20.0111 23.0341 19.2133C24.0756 18.3934 24.9067 17.1856 25.5272 15.59C26.1698 13.9945 26.4911 12.0554 26.4911 9.77285C26.4911 8.59834 26.3471 7.54571 26.059 6.61496C25.7931 5.66205 25.361 4.91967 24.7626 4.38781C24.1643 3.85595 23.3776 3.59003 22.4025 3.59003C21.5604 3.59003 20.7848 3.72299 20.0756 3.98892C19.3887 4.25485 18.7571 4.63158 18.1809 5.11911C17.6047 5.60665 17.0507 6.18282 16.5188 6.84765C16.3416 7.06925 16.12 7.25762 15.854 7.41274C15.5881 7.56787 15.2668 7.64543 14.89 7.64543C14.4247 7.64543 14.0258 7.46814 13.6934 7.11357C13.361 6.759 13.1947 6.33795 13.1947 5.85041C13.1947 5.34072 13.4164 4.76454 13.8596 4.12188C14.3028 3.45706 14.9344 2.8144 15.7543 2.19391C16.5742 1.55125 17.5493 1.03047 18.6795 0.631578C19.8097 0.210526 21.0507 0 22.4025 0C24.1532 0 25.5936 0.398892 26.7238 1.19668C27.8762 1.99446 28.7294 3.12465 29.2834 4.58726C29.8596 6.0277 30.1477 7.75623 30.1477 9.77285C30.1477 12.1662 29.8374 14.2604 29.2169 16.0554C28.6186 17.8283 27.8097 19.3019 26.7903 20.4765C25.7931 21.651 24.674 22.5374 23.433 23.1357C22.192 23.7119 20.9288 24 19.6435 24Z" fill="#374151"/>
<ellipse cx="18.6664" cy="13.3334" rx="4.66667" ry="4.66667" fill="#374151"/>
</svg>
